# xmcd
#
# Track frame offsets: 
#        150
#        11023
#        25348
#        49563
#        71225
#        88273
#        109723
#        122268
#        136255
#        152588
#        166225
#        187095
#        203975
#
# Disc length: 2942 seconds
#
# Revision: 2
# Processed by: cddbd v1.5.1PL0 Copyright (c) Steve Scherf et al.
# Submitted via: ExactAudioCopy v0.95a5
#
DISCID=ac0b7c0d
DTITLE=Thievery Corporation - Mirror Conspiracy
DYEAR=2000
DGENRE=Electronic
TTITLE0=Treasures
TTITLE1=Le Monde
TTITLE2=Indra
TTITLE3=Lebanese Blonde
TTITLE4=Focus on Sight
TTITLE5=Air Batucada
TTITLE6=So Com Voce
TTITLE7=Samba Tranquille
TTITLE8=Shadows of Ourselves
TTITLE9=The Hong Kong Triad
TTITLE10=Illumination
TTITLE11=The Mirror Conspiracy
TTITLE12=Tomorrow
EXTD=
EXTT0=
EXTT1=
EXTT2=
EXTT3=
EXTT4=
EXTT5=
EXTT6=
EXTT7=
EXTT8=
EXTT9=
EXTT10=
EXTT11=
EXTT12=
PLAYORDER=
